<svg fill="#111827" xmlns="http://www.w3.org/2000/svg"  viewBox="0 0 50 50" width="50px" height="50px"><path d="M 10 5 C 7.2504839 5 5 7.2504839 5 10 L 5 28.228516 A 1.0001 1.0001 0 0 0 5 28.453125 L 5 40 C 5 42.749516 7.2504839 45 10 45 L 40 45 C 42.749516 45 45 42.749516 45 40 L 45 28.460938 A 1.0001 1.0001 0 0 0 45 28.236328 L 45 10 C 45 7.2504839 42.749516 5 40 5 L 10 5 z M 14 10 C 16 10 20 16 25 16 C 30 16 34 10 36 10 C 38 10 38 13 38 13 C 38.09 13.35 39 12 40 12 C 41.431003 12 42.205586 14.314015 43 15.802734 L 43 28.095703 C 41.506352 31.00022 38.492581 33 35 33 C 33.545132 33 32.185569 32.638709 30.970703 32.025391 C 30.83598 31.019167 30.172014 30.1448 29.240234 29.416016 C 28.194351 28.597985 26.730556 28 25 28 C 23.269444 28 21.805649 28.597985 20.759766 29.416016 C 19.827986 30.1448 19.16402 31.019167 19.029297 32.025391 C 17.814431 32.638709 16.454868 33 15 33 C 11.507419 33 8.4936492 31.00022 7 28.095703 L 7 15.802734 C 7.7944142 14.314015 8.5689972 12 10 12 C 11 12 11.91 13.35 12 13 C 12 13 12 10 14 10 z M 15 16 C 11.698375 16 9 18.698375 9 22 L 9 24 C 9 27.301625 11.698375 30 15 30 C 18.301625 30 21 27.301625 21 24 L 21 22 C 21 18.698375 18.301625 16 15 16 z M 35 16 C 31.698375 16 29 18.698375 29 22 L 29 24 C 29 27.301625 31.698375 30 35 30 C 38.301625 30 41 27.301625 41 24 L 41 22 C 41 18.698375 38.301625 16 35 16 z M 15 18 C 17.220375 18 19 19.779625 19 22 L 19 24 C 19 26.220375 17.220375 28 15 28 C 12.779625 28 11 26.220375 11 24 L 11 22 C 11 19.779625 12.779625 18 15 18 z M 35 18 C 37.220375 18 39 19.779625 39 22 L 39 24 C 39 26.220375 37.220375 28 35 28 C 32.779625 28 31 26.220375 31 24 L 31 22 C 31 19.779625 32.779625 18 35 18 z M 15 20 C 14.71 20 14.429688 20.059687 14.179688 20.179688 C 14.669688 20.409687 15 20.91 15 21.5 C 15 22.33 14.33 23 13.5 23 C 13.32 23 13.16 22.970156 13 22.910156 L 13 24 C 13 25.1 13.9 26 15 26 C 16.1 26 17 25.1 17 24 L 17 22 C 17 21.45 16.780156 20.949844 16.410156 20.589844 C 16.050156 20.219844 15.55 20 15 20 z M 35 20 C 34.71 20 34.429688 20.059687 34.179688 20.179688 C 34.669688 20.409687 35 20.91 35 21.5 C 35 22.33 34.33 23 33.5 23 C 33.32 23 33.16 22.970156 33 22.910156 L 33 24 C 33 25.1 33.9 26 35 26 C 36.1 26 37 25.1 37 24 L 37 22 C 37 21.45 36.780156 20.949844 36.410156 20.589844 C 36.050156 20.219844 35.55 20 35 20 z M 25 30 C 26.269444 30 27.305649 30.439515 28.009766 30.990234 C 28.673017 31.508992 28.954626 32.144523 28.986328 32.351562 A 1.0001 1.0001 0 0 0 28.951172 32.535156 C 28.876832 32.676789 28.685325 32.897667 28.351562 33.126953 A 1.0001 1.0001 0 0 0 28.058594 33.316406 C 27.330562 33.705152 26.224575 34 25 34 C 23.77343 34 22.665482 33.704138 21.9375 33.314453 C 21.929822 33.310343 21.925532 33.306852 21.917969 33.302734 A 1.0001 1.0001 0 0 0 21.679688 33.148438 C 21.325299 32.911453 21.123213 32.680997 21.046875 32.535156 A 1.0001 1.0001 0 0 0 21.013672 32.351562 C 21.045374 32.144523 21.326983 31.508992 21.990234 30.990234 C 22.694351 30.439515 23.730556 30 25 30 z M 22.134766 35.548828 C 22.992493 35.831421 23.958414 36 25 36 C 26.041586 36 27.007507 35.831421 27.865234 35.548828 C 27.719782 35.962841 27.460406 36.482473 27.078125 36.917969 C 26.48679 37.591621 25.719781 38.039062 25 38.039062 C 24.280219 38.039062 23.51321 37.591621 22.921875 36.917969 C 22.539594 36.482473 22.280218 35.962841 22.134766 35.548828 z"/></svg>